#!OML:ASF I:\Actors\actors\Patient Classification 1\Patient 1\Session 1\Subject1.ASF
:FULLY-SPECIFIED
:DEGREES
248
root -0.64497 17.8399 7.46645 21.2628 7.95023 -13.3533
lowerback 20.094 1.62978 5.9757
upperback 8.93022 3.0809 -2.16864
thorax -1.06994 1.73953 -6.34099
lowerneck -14.4262 -0.829249 1.18197
upperneck -2.82549 -1.44303 8.669
head 1.65814 -0.47004 2.533
rclavicle -1.19271e-014 -2.8625e-014
rhumerus 40.0242 -2.45171 -109.219
rradius 14.8451
rwrist 45.0874
rhand 10.7797 -26.2121
rfingers 7.12502
rthumb 35.8655 -52.5616
lclavicle -1.19271e-014 -2.8625e-014
lhumerus 48.7192 14.1168 99.3312
lradius 6.85218
lwrist -21.6493
lhand -24.4566 -10.6489
lfingers 7.12502
lthumb 2.03635 19.3211
rfemur -22.1625 26.6841 23.5907
rtibia 2.68146
rfoot -8.99735 -29.8095
rtoes 8.52727
lfemur -23.6018 -36.091 13.0811
ltibia -1.22231
lfoot -9.09545 46.8565
ltoes 3.15562
249
root -0.641569 17.8471 7.47576 21.5164 8.37305 -13.7944
lowerback 20.272 1.55479 6.41718
upperback 9.06098 3.07261 -2.07741
thorax -0.993145 1.75253 -6.49887
lowerneck -14.7594 -0.836211 1.16712
upperneck -3.03826 -1.44458 8.68252
head 1.64616 -0.469142 2.54079
rclavicle -8.74653e-015 1.27222e-014
rhumerus 40.8768 3.05623 -103.352
rradius 14.2321
rwrist 36.7083
rhand 10.2293 -27.2474
rfingers 7.12502
rthumb 35.3438 -53.7225
lclavicle -8.74653e-015 1.27222e-014
lhumerus 49.2553 13.7606 99.272
lradius 6.71093
lwrist -21.7018
lhand -25.7888 -10.7198
lfingers 7.12502
lthumb 0.749717 19.2586
rfemur -22.4434 26.7038 24.003
rtibia 2.60269
rfoot -9.04489 -30.0056
rtoes 8.60997
lfemur -24.1309 -35.6257 13.9006
ltibia -1.18107
lfoot -8.58242 46.4776
ltoes 2.39295
250
root -0.638231 17.8533 7.48226 21.7127 8.67515 -14.0296
lowerback 20.6446 1.58266 6.77989
upperback 9.10097 3.19409 -2.0546
thorax -1.09233 1.81917 -6.72526
lowerneck -14.8495 -1.01611 1.0075
upperneck -3.28859 -1.64584 8.86386
head 1.59285 -0.570035 2.61788
rclavicle -7.95139e-015 -5.24792e-014
rhumerus 41.4376 4.34696 -101.447
rradius 14.0526
rwrist 34.2474
rhand 9.88329 -27.486
rfingers 7.12502
rthumb 35.0156 -54.0384
lclavicle -7.95139e-015 -5.24792e-014
lhumerus 49.7471 13.1096 99.3041
lradius 6.26688
lwrist -21.5585
lhand -26.6274 -11.0453
lfingers 7.12502
lthumb -0.0602282 18.9344
rfemur -22.6798 26.7449 24.1707
rtibia 2.551
rfoot -9.06296 -30.2294
rtoes 8.63376
lfemur -24.5496 -35.3218 14.4172
ltibia -1.12072
lfoot -8.28448 46.1903
ltoes 1.96081
251
root -0.636005 17.858 7.48748 21.857 8.75851 -14.0808
lowerback 21.3774 1.55426 6.92545
upperback 8.90742 3.22005 -2.32729
thorax -1.63731 1.81131 -7.16309
lowerneck -14.6375 -1.02399 1.81177
upperneck -3.42273 -1.76379 8.73481
head 1.49847 -0.649697 2.41784
rclavicle 3.49861e-014 -2.62396e-014
rhumerus 41.4431 3.22784 -102.751
rradius 13.8072
rwrist 35.6989
rhand 9.54954 -27.0455
rfingers 7.12502
rthumb 34.699 -53.6714
lclavicle 3.49861e-014 -2.62396e-014
lhumerus 49.9864 12.6005 98.7975
lradius 5.86877
lwrist -21.1249
lhand -26.6247 -10.8118
lfingers 7.12502
lthumb -0.0576262 19.168
rfemur -22.8573 26.8105 24.1203
rtibia 2.52499
rfoot -9.0313 -30.3525
rtoes 8.8313
lfemur -24.7719 -35.2244 14.6188
ltibia -1.09355
lfoot -8.19815 46.1444
ltoes 1.88587
252
root -0.635051 17.8633 7.49571 22.0156 8.81632 -14.1756
lowerback 21.7099 1.58045 6.87647
upperback 8.94951 3.25842 -2.39919
thorax -1.7495 1.82627 -7.24038
lowerneck -14.8969 -1.10635 1.4416
upperneck -3.23684 -1.84778 9.07428
head 1.62381 -0.665769 2.59851
rclavicle 7.79236e-014 -3.4191e-014
rhumerus 41.8116 2.60281 -103.554
rradius 13.5861
rwrist 36.4133
rhand 9.5265 -26.8078
rfingers 7.12502
rthumb 34.6771 -53.4386
lclavicle 7.79236e-014 -3.4191e-014
lhumerus 50.5013 12.23 98.6508
lradius 5.61786
lwrist -20.7128
lhand -26.614 -10.3092
lfingers 7.12502
lthumb -0.04723 19.6705
rfemur -23.026 26.9051 24.1164
rtibia 2.48834
rfoot -9.00922 -30.433
rtoes 8.9112
lfemur -24.9796 -35.2663 14.9224
ltibia -1.11905
lfoot -8.2038 46.2739
ltoes 1.98583
253
root -0.632255 17.8673 7.5056 22.1733 8.91153 -14.3188
lowerback 21.5578 1.63857 6.69744
upperback 9.26997 3.28804 -2.27297
thorax -1.33991 1.86172 -6.98311
lowerneck -15.2291 -1.16072 0.889191
upperneck -3.22937 -1.8486 9.34884
head 1.70165 -0.645044 2.79663
rclavicle -3.49861e-014 -2.22639e-014
rhumerus 42.4798 2.51704 -103.82
rradius 13.4689
rwrist 36.2909
rhand 9.5566 -26.8616
rfingers 7.12502
rthumb 34.7057 -53.4859
lclavicle -3.49861e-014 -2.22639e-014
lhumerus 51.3526 12.0005 98.8359
lradius 5.37442
lwrist -20.3482
lhand -26.6944 -9.79432
lfingers 7.12502
lthumb -0.12493 20.1854
rfemur -23.1695 27.028 24.1664
rtibia 2.42003
rfoot -8.99163 -30.555
rtoes 8.85115
lfemur -25.2115 -35.471 15.3488
ltibia -1.17264
lfoot -8.41704 46.5437
ltoes 2.49664
254
root -0.627559 17.8696 7.51511 22.2889 9.04954 -14.4549
lowerback 21.523 1.67886 6.6668
upperback 9.49189 3.32931 -2.21887
thorax -1.07832 1.89832 -6.90396
lowerneck -15.3522 -1.21547 0.689672
upperneck -3.29284 -1.89028 9.48947
head 1.71108 -0.659322 2.87983
rclavicle -2.70347e-014 -2.14687e-014
rhumerus 42.9447 2.41421 -103.943
rradius 13.4618
rwrist 35.9382
rhand 9.61827 -27.0382
rfingers 7.12502
rthumb 34.7642 -53.649
lclavicle -2.70347e-014 -2.14687e-014
lhumerus 52.0312 11.6338 98.903
lradius 5.04141
lwrist -19.9472
lhand -26.8566 -9.31254
lfingers 7.12502
lthumb -0.281543 20.667
rfemur -23.2476 27.1384 24.2337
rtibia 2.31351
rfoot -8.92939 -30.7111
rtoes 8.84932
lfemur -25.4234 -35.6636 15.73
ltibia -1.20884
lfoot -8.65161 46.7667
ltoes 3.02772
255
root -0.623695 17.8724 7.52401 22.322 9.21108 -14.5561
lowerback 21.7281 1.69082 6.71176
upperback 9.62444 3.36194 -2.21794
thorax -1.02581 1.92225 -6.94275
lowerneck -15.4128 -1.27453 0.762943
upperneck -3.27916 -1.98531 9.45791
head 1.72883 -0.706698 2.84962
rclavicle 1.59028e-014 -1.82882e-014
rhumerus 43.2684 2.12583 -104.19
rradius 13.4656
rwrist 36.0127
rhand 9.79396 -27.3178
rfingers 7.12502
rthumb 34.9309 -53.89
lclavicle 1.59028e-014 -1.82882e-014
lhumerus 52.5174 11.216 98.8759
lradius 4.76861
lwrist -19.3299
lhand -26.8882 -9.12643
lfingers 7.12502
lthumb -0.312145 20.8531
rfemur -23.2294 27.213 24.3212
rtibia 2.21819
rfoot -8.93246 -30.8797
rtoes 9.01967
lfemur -25.5357 -35.7445 15.9547
ltibia -1.22499
lfoot -8.65137 46.8155
ltoes 3.07877
256
root -0.621236 17.8767 7.53154 22.3264 9.37225 -14.5874
lowerback 22.049 1.64677 6.72634
upperback 9.70285 3.32177 -2.30669
thorax -1.09783 1.90474 -7.05687
lowerneck -15.4916 -1.28654 0.957999
upperneck -3.1364 -2.04979 9.41669
head 1.78923 -0.734762 2.79679
rclavicle 7.15625e-014 -4.77083e-015
rhumerus 43.548 1.78026 -104.723
rradius 13.3784
rwrist 36.5578
rhand 9.89111 -27.604
rfingers 7.12502
rthumb 35.0231 -54.1547
lclavicle 7.15625e-014 -4.77083e-015
lhumerus 52.7985 10.944 98.6142
lradius 4.7406
lwrist -18.5579
lhand -26.6761 -9.14065
lfingers 7.12502
lthumb -0.107279 20.8391
rfemur -23.1925 27.1844 24.3781
rtibia 2.16864
rfoot -8.9756 -30.985
rtoes 9.24669
lfemur -25.6126 -35.7473 16.0368
ltibia -1.20963
lfoot -8.63641 46.725
ltoes 3.13242
257
root -0.619303 17.8821 7.53578 22.3528 9.51539 -14.5672
lowerback 22.4313 1.55339 6.70605
upperback 9.68606 3.21353 -2.48149
thorax -1.31274 1.8455 -7.23872
lowerneck -15.3014 -1.22856 1.17003
upperneck -3.12751 -2.00212 9.48383
head 1.75362 -0.714919 2.78275
rclavicle 5.40694e-014 -2.22639e-014
rhumerus 43.7159 1.4716 -105.383
rradius 13.2891
rwrist 37.1368
rhand 10.1395 -27.7776
rfingers 7.12502
rthumb 35.2587 -54.2729
lclavicle 5.40694e-014 -2.22639e-014
lhumerus 52.9087 10.7985 98.1465
lradius 4.82962
lwrist -18.015
lhand -26.4847 -8.98863
lfingers 7.12502
lthumb 0.0775886 20.9911
rfemur -23.2126 27.0767 24.3782
rtibia 2.15409
rfoot -8.9587 -31.0088
rtoes 9.38962
lfemur -25.7245 -35.6144 16.033
ltibia -1.1594
lfoot -8.44993 46.5066
ltoes 2.96226
258
root -0.618785 17.8882 7.53726 22.3775 9.59443 -14.5558
lowerback 22.7358 1.64558 6.60521
upperback 9.84932 3.32781 -2.39503
thorax -1.27784 1.90289 -7.12207
lowerneck -15.4338 -1.3624 0.789597
upperneck -3.25643 -2.11179 9.49242
head 1.74658 -0.768188 2.84861
rclavicle -1.59028e-014 -1.03368e-014
rhumerus 44.222 1.23141 -105.203
rradius 13.2951
rwrist 37.2616
rhand 10.4175 -27.8155
rfingers 7.12502
rthumb 35.5222 -54.2479
lclavicle -1.59028e-014 -1.03368e-014
lhumerus 53.3683 10.3265 98.3781
lradius 4.7794
lwrist -17.815
lhand -26.4627 -8.78302
lfingers 7.12502
lthumb 0.0988227 21.1967
rfemur -23.2831 27.0349 24.3599
rtibia 2.20433
rfoot -8.94039 -31.0328
rtoes 9.47055
lfemur -25.7811 -35.2961 15.9487
ltibia -1.0929
lfoot -8.04355 46.1645
ltoes 2.31531
